<mxfile host="app.diagrams.net" agent="Mozilla/5.0 (Windows NT 10.0; Win64; x64) AppleWebKit/537.36 (KHTML, like Gecko) Chrome/134.0.0.0 Safari/537.36 Edg/134.0.0.0" version="26.1.1">
  <diagram name="Page-1" id="IgXNEZcixZDVylgOevuD">
    <mxGraphModel dx="926" dy="545" grid="0" gridSize="10" guides="1" tooltips="1" connect="1" arrows="1" fold="1" page="1" pageScale="1" pageWidth="850" pageHeight="1100" background="#ffffff" math="0" shadow="0">
      <root>
        <mxCell id="0" />
        <mxCell id="1" parent="0" />
        <mxCell id="W5c6LrEPcy4bqcEt_C2P-17" style="edgeStyle=orthogonalEdgeStyle;rounded=0;orthogonalLoop=1;jettySize=auto;html=1;exitX=0.5;exitY=1;exitDx=0;exitDy=0;entryX=0.5;entryY=0;entryDx=0;entryDy=0;" edge="1" parent="1" source="W5c6LrEPcy4bqcEt_C2P-2" target="W5c6LrEPcy4bqcEt_C2P-3">
          <mxGeometry relative="1" as="geometry" />
        </mxCell>
        <mxCell id="W5c6LrEPcy4bqcEt_C2P-2" value="button_handle(void)" style="shape=process;whiteSpace=wrap;html=1;backgroundOutline=1;" vertex="1" parent="1">
          <mxGeometry x="107.48" y="32" width="188" height="38" as="geometry" />
        </mxCell>
        <mxCell id="W5c6LrEPcy4bqcEt_C2P-18" style="edgeStyle=orthogonalEdgeStyle;rounded=0;orthogonalLoop=1;jettySize=auto;html=1;exitX=0.5;exitY=1;exitDx=0;exitDy=0;entryX=0.5;entryY=0;entryDx=0;entryDy=0;" edge="1" parent="1" source="W5c6LrEPcy4bqcEt_C2P-3" target="W5c6LrEPcy4bqcEt_C2P-7">
          <mxGeometry relative="1" as="geometry" />
        </mxCell>
        <mxCell id="W5c6LrEPcy4bqcEt_C2P-3" value="uint8_t pre_value = HAL_GPIO_ReadPin(GPIOA, GPIO_pin_12)" style="rounded=0;whiteSpace=wrap;html=1;" vertex="1" parent="1">
          <mxGeometry x="105.48" y="115" width="192" height="47" as="geometry" />
        </mxCell>
        <mxCell id="W5c6LrEPcy4bqcEt_C2P-21" style="edgeStyle=orthogonalEdgeStyle;rounded=0;orthogonalLoop=1;jettySize=auto;html=1;exitX=0.5;exitY=1;exitDx=0;exitDy=0;entryX=0.5;entryY=0;entryDx=0;entryDy=0;" edge="1" parent="1" source="W5c6LrEPcy4bqcEt_C2P-5" target="W5c6LrEPcy4bqcEt_C2P-14">
          <mxGeometry relative="1" as="geometry" />
        </mxCell>
        <mxCell id="W5c6LrEPcy4bqcEt_C2P-22" value="yes&lt;div&gt;&lt;br&gt;&lt;/div&gt;" style="edgeLabel;html=1;align=center;verticalAlign=middle;resizable=0;points=[];" vertex="1" connectable="0" parent="W5c6LrEPcy4bqcEt_C2P-21">
          <mxGeometry x="-0.04" y="3" relative="1" as="geometry">
            <mxPoint as="offset" />
          </mxGeometry>
        </mxCell>
        <mxCell id="W5c6LrEPcy4bqcEt_C2P-24" style="edgeStyle=orthogonalEdgeStyle;rounded=0;orthogonalLoop=1;jettySize=auto;html=1;exitX=0;exitY=0.5;exitDx=0;exitDy=0;" edge="1" parent="1" source="W5c6LrEPcy4bqcEt_C2P-5">
          <mxGeometry relative="1" as="geometry">
            <mxPoint x="32.480000000000004" y="144" as="targetPoint" />
          </mxGeometry>
        </mxCell>
        <mxCell id="W5c6LrEPcy4bqcEt_C2P-27" value="No" style="edgeLabel;html=1;align=center;verticalAlign=middle;resizable=0;points=[];" vertex="1" connectable="0" parent="W5c6LrEPcy4bqcEt_C2P-24">
          <mxGeometry x="-0.8056" y="-1" relative="1" as="geometry">
            <mxPoint as="offset" />
          </mxGeometry>
        </mxCell>
        <mxCell id="W5c6LrEPcy4bqcEt_C2P-5" value="pre_value == cur_value ?" style="rhombus;whiteSpace=wrap;html=1;" vertex="1" parent="1">
          <mxGeometry x="97.98" y="394" width="207" height="80" as="geometry" />
        </mxCell>
        <mxCell id="W5c6LrEPcy4bqcEt_C2P-19" style="edgeStyle=orthogonalEdgeStyle;rounded=0;orthogonalLoop=1;jettySize=auto;html=1;exitX=0.5;exitY=1;exitDx=0;exitDy=0;entryX=0.5;entryY=0;entryDx=0;entryDy=0;" edge="1" parent="1" source="W5c6LrEPcy4bqcEt_C2P-7" target="W5c6LrEPcy4bqcEt_C2P-8">
          <mxGeometry relative="1" as="geometry" />
        </mxCell>
        <mxCell id="W5c6LrEPcy4bqcEt_C2P-7" value="HAL_Delay(15)" style="rounded=0;whiteSpace=wrap;html=1;" vertex="1" parent="1">
          <mxGeometry x="105.48" y="200" width="192" height="47" as="geometry" />
        </mxCell>
        <mxCell id="W5c6LrEPcy4bqcEt_C2P-20" style="edgeStyle=orthogonalEdgeStyle;rounded=0;orthogonalLoop=1;jettySize=auto;html=1;exitX=0.5;exitY=1;exitDx=0;exitDy=0;entryX=0.5;entryY=0;entryDx=0;entryDy=0;" edge="1" parent="1" source="W5c6LrEPcy4bqcEt_C2P-8" target="W5c6LrEPcy4bqcEt_C2P-5">
          <mxGeometry relative="1" as="geometry" />
        </mxCell>
        <mxCell id="W5c6LrEPcy4bqcEt_C2P-8" value="uint8_t cur_value = HAL_GPIO_ReadPin(GPIOA, GPIO_pin_12)" style="rounded=0;whiteSpace=wrap;html=1;" vertex="1" parent="1">
          <mxGeometry x="105.48" y="292" width="192" height="47" as="geometry" />
        </mxCell>
        <mxCell id="W5c6LrEPcy4bqcEt_C2P-34" style="edgeStyle=orthogonalEdgeStyle;rounded=0;orthogonalLoop=1;jettySize=auto;html=1;exitX=0.5;exitY=1;exitDx=0;exitDy=0;entryX=0.5;entryY=0;entryDx=0;entryDy=0;" edge="1" parent="1" source="W5c6LrEPcy4bqcEt_C2P-11" target="W5c6LrEPcy4bqcEt_C2P-33">
          <mxGeometry relative="1" as="geometry" />
        </mxCell>
        <mxCell id="W5c6LrEPcy4bqcEt_C2P-11" value="Display_Digit(uint8_t digit, uint8_t value);&lt;div&gt;Display_Number(uint16_t num)&lt;/div&gt;" style="shape=process;whiteSpace=wrap;html=1;backgroundOutline=1;" vertex="1" parent="1">
          <mxGeometry x="354" y="354.5" width="225" height="60" as="geometry" />
        </mxCell>
        <mxCell id="W5c6LrEPcy4bqcEt_C2P-30" style="edgeStyle=orthogonalEdgeStyle;rounded=0;orthogonalLoop=1;jettySize=auto;html=1;exitX=0.5;exitY=1;exitDx=0;exitDy=0;entryX=0.5;entryY=0;entryDx=0;entryDy=0;" edge="1" parent="1" source="W5c6LrEPcy4bqcEt_C2P-12" target="W5c6LrEPcy4bqcEt_C2P-13">
          <mxGeometry relative="1" as="geometry" />
        </mxCell>
        <mxCell id="W5c6LrEPcy4bqcEt_C2P-12" value="count++;" style="rounded=0;whiteSpace=wrap;html=1;" vertex="1" parent="1">
          <mxGeometry x="370.5" y="125.5" width="192" height="47" as="geometry" />
        </mxCell>
        <mxCell id="W5c6LrEPcy4bqcEt_C2P-31" style="edgeStyle=orthogonalEdgeStyle;rounded=0;orthogonalLoop=1;jettySize=auto;html=1;exitX=0.5;exitY=1;exitDx=0;exitDy=0;entryX=0.5;entryY=0;entryDx=0;entryDy=0;" edge="1" parent="1" source="W5c6LrEPcy4bqcEt_C2P-13" target="W5c6LrEPcy4bqcEt_C2P-11">
          <mxGeometry relative="1" as="geometry" />
        </mxCell>
        <mxCell id="W5c6LrEPcy4bqcEt_C2P-39" value="Yes" style="edgeLabel;html=1;align=center;verticalAlign=middle;resizable=0;points=[];" vertex="1" connectable="0" parent="W5c6LrEPcy4bqcEt_C2P-31">
          <mxGeometry x="-0.034" y="3" relative="1" as="geometry">
            <mxPoint as="offset" />
          </mxGeometry>
        </mxCell>
        <mxCell id="W5c6LrEPcy4bqcEt_C2P-38" style="edgeStyle=orthogonalEdgeStyle;rounded=0;orthogonalLoop=1;jettySize=auto;html=1;exitX=1;exitY=0.5;exitDx=0;exitDy=0;entryX=0;entryY=0.5;entryDx=0;entryDy=0;" edge="1" parent="1" source="W5c6LrEPcy4bqcEt_C2P-13" target="W5c6LrEPcy4bqcEt_C2P-32">
          <mxGeometry relative="1" as="geometry" />
        </mxCell>
        <mxCell id="W5c6LrEPcy4bqcEt_C2P-40" value="No" style="edgeLabel;html=1;align=center;verticalAlign=middle;resizable=0;points=[];" vertex="1" connectable="0" parent="W5c6LrEPcy4bqcEt_C2P-38">
          <mxGeometry x="-0.3351" relative="1" as="geometry">
            <mxPoint as="offset" />
          </mxGeometry>
        </mxCell>
        <mxCell id="W5c6LrEPcy4bqcEt_C2P-13" value="count &amp;lt;= 999 ?" style="rhombus;whiteSpace=wrap;html=1;" vertex="1" parent="1">
          <mxGeometry x="363" y="222.5" width="207" height="80" as="geometry" />
        </mxCell>
        <mxCell id="W5c6LrEPcy4bqcEt_C2P-23" style="edgeStyle=orthogonalEdgeStyle;rounded=0;orthogonalLoop=1;jettySize=auto;html=1;exitX=0.5;exitY=1;exitDx=0;exitDy=0;entryX=0.5;entryY=0;entryDx=0;entryDy=0;" edge="1" parent="1" source="W5c6LrEPcy4bqcEt_C2P-14" target="W5c6LrEPcy4bqcEt_C2P-16">
          <mxGeometry relative="1" as="geometry" />
        </mxCell>
        <mxCell id="W5c6LrEPcy4bqcEt_C2P-14" value="flag = 1" style="rounded=0;whiteSpace=wrap;html=1;" vertex="1" parent="1">
          <mxGeometry x="105.48" y="524" width="192" height="47" as="geometry" />
        </mxCell>
        <mxCell id="W5c6LrEPcy4bqcEt_C2P-16" value="led_handle()" style="shape=process;whiteSpace=wrap;html=1;backgroundOutline=1;" vertex="1" parent="1">
          <mxGeometry x="107.48" y="618" width="188" height="38" as="geometry" />
        </mxCell>
        <mxCell id="W5c6LrEPcy4bqcEt_C2P-26" value="" style="endArrow=classic;html=1;rounded=0;entryX=0.008;entryY=0.623;entryDx=0;entryDy=0;entryPerimeter=0;" edge="1" parent="1" target="W5c6LrEPcy4bqcEt_C2P-3">
          <mxGeometry width="50" height="50" relative="1" as="geometry">
            <mxPoint x="30.000000000000014" y="145" as="sourcePoint" />
            <mxPoint x="107.48" y="150.25" as="targetPoint" />
          </mxGeometry>
        </mxCell>
        <mxCell id="W5c6LrEPcy4bqcEt_C2P-29" style="edgeStyle=orthogonalEdgeStyle;rounded=0;orthogonalLoop=1;jettySize=auto;html=1;exitX=0.5;exitY=1;exitDx=0;exitDy=0;entryX=0.5;entryY=0;entryDx=0;entryDy=0;" edge="1" parent="1" source="W5c6LrEPcy4bqcEt_C2P-28" target="W5c6LrEPcy4bqcEt_C2P-12">
          <mxGeometry relative="1" as="geometry" />
        </mxCell>
        <mxCell id="W5c6LrEPcy4bqcEt_C2P-28" value="led_handle()" style="shape=process;whiteSpace=wrap;html=1;backgroundOutline=1;" vertex="1" parent="1">
          <mxGeometry x="372.5" y="32.5" width="188" height="38" as="geometry" />
        </mxCell>
        <mxCell id="W5c6LrEPcy4bqcEt_C2P-35" style="edgeStyle=orthogonalEdgeStyle;rounded=0;orthogonalLoop=1;jettySize=auto;html=1;exitX=0.5;exitY=1;exitDx=0;exitDy=0;" edge="1" parent="1" source="W5c6LrEPcy4bqcEt_C2P-32">
          <mxGeometry relative="1" as="geometry">
            <mxPoint x="709" y="387" as="targetPoint" />
          </mxGeometry>
        </mxCell>
        <mxCell id="W5c6LrEPcy4bqcEt_C2P-32" value="count = 0" style="rounded=0;whiteSpace=wrap;html=1;" vertex="1" parent="1">
          <mxGeometry x="613" y="239" width="192" height="47" as="geometry" />
        </mxCell>
        <mxCell id="W5c6LrEPcy4bqcEt_C2P-33" value="END" style="rounded=0;whiteSpace=wrap;html=1;labelBackgroundColor=default;" vertex="1" parent="1">
          <mxGeometry x="370.5" y="452" width="192" height="47" as="geometry" />
        </mxCell>
        <mxCell id="W5c6LrEPcy4bqcEt_C2P-37" value="" style="endArrow=classic;html=1;rounded=0;entryX=1;entryY=0.5;entryDx=0;entryDy=0;" edge="1" parent="1" target="W5c6LrEPcy4bqcEt_C2P-11">
          <mxGeometry width="50" height="50" relative="1" as="geometry">
            <mxPoint x="708" y="383" as="sourcePoint" />
            <mxPoint x="579" y="389.9799999999999" as="targetPoint" />
          </mxGeometry>
        </mxCell>
      </root>
    </mxGraphModel>
  </diagram>
</mxfile>
